<?xml version="1.0" standalone="no"?>
<!DOCTYPE svg PUBLIC "-//W3C//DTD SVG 20010904//EN"
 "http://www.w3.org/TR/2001/REC-SVG-20010904/DTD/svg10.dtd">
<svg version="1.0" xmlns="http://www.w3.org/2000/svg"
 width="1024.000000pt" height="1024.000000pt" viewBox="0 0 1024.000000 1024.000000"
 preserveAspectRatio="xMidYMid meet">

<g transform="translate(0.000000,1024.000000) scale(0.100000,-0.100000)"
fill="#000000" stroke="none">
<path d="M2636 8023 c-4 -5 -128 -11 -274 -14 -294 -6 -328 -12 -427 -74 -102
-64 -183 -186 -211 -319 -20 -93 -20 -3621 0 -3698 42 -160 131 -260 275 -307
64 -21 71 -21 1343 -21 l1278 0 -5 -22 c-36 -154 -101 -521 -98 -554 6 -52
-33 -243 -54 -266 -14 -16 -36 -18 -172 -18 -170 0 -218 -8 -251 -43 -20 -21
-112 -219 -196 -424 -42 -101 -44 -154 -9 -188 l24 -25 1226 0 c1345 0 1269
-4 1295 60 14 34 12 39 -62 220 -21 52 -60 147 -85 210 -80 199 -74 195 -303
186 -152 -7 -168 -6 -188 11 -23 18 -40 78 -63 218 -5 33 -23 121 -39 195 -42
192 -90 422 -90 432 0 4 398 8 884 8 l885 -1 43 43 c24 23 87 64 142 92 109
55 138 85 138 138 0 46 -19 80 -87 158 -77 87 -99 137 -99 226 -1 65 3 79 40
150 28 55 53 89 83 112 51 39 70 40 110 6 48 -40 43 -84 -13 -139 -50 -48 -68
-96 -56 -150 10 -43 23 -63 85 -135 69 -80 98 -148 98 -230 0 -109 -56 -190
-172 -251 -23 -12 -40 -23 -39 -25 2 -2 36 4 75 12 61 12 77 13 105 1 32 -13
35 -12 83 23 28 21 83 54 123 75 151 78 170 179 60 314 -34 43 -50 71 -50 93
-1 40 32 68 80 68 29 0 43 -8 77 -44 24 -24 59 -76 79 -116 33 -66 36 -80 36
-154 0 -117 -34 -183 -130 -258 -43 -34 -36 -34 63 -4 155 48 247 137 296 286
l22 65 -1 1830 c0 1759 -1 1833 -19 1895 -26 93 -51 138 -111 198 -54 54 -137
103 -212 123 -24 7 -181 16 -353 21 -379 11 -5169 21 -5179 11z m5299 -206
c165 -4 203 -16 278 -93 92 -96 92 -94 93 -454 0 -255 -1 -279 -5 -125 -3 105
-9 177 -12 160 -5 -24 -7 -18 -9 25 -2 56 -4 55 -15 -12 -7 -42 -21 -50 -29
-15 -2 12 -3 -61 -1 -163 2 -119 0 -167 -5 -135 -5 28 -9 84 -11 125 -2 53 -4
62 -6 30 -2 -25 0 -100 4 -167 6 -93 5 -124 -4 -127 -9 -4 -13 74 -15 332 -3
325 -4 339 -25 378 -29 55 -81 98 -140 118 -45 15 -292 16 -2944 14 -2666 -3
-2897 -4 -2929 -20 -51 -23 -89 -64 -116 -122 l-24 -51 0 -1572 0 -1573 1748
-1 c961 -1 1756 -4 1767 -7 25 -9 29 -52 5 -52 -10 0 -16 -10 -18 -27 -1 -14
-5 -29 -8 -32 -3 -3 -818 -7 -1810 -9 l-1804 -3 -2 1403 c-4 2174 -7 1933 23
1999 47 99 128 162 230 177 49 7 5479 6 5784 -1z m-5643 -304 c36 -33 10 -93
-42 -93 -33 0 -50 17 -50 51 0 52 54 77 92 42z m5346 -28 c71 -30 121 -102
122 -174 0 -80 -70 -159 -156 -177 -67 -13 -157 34 -191 99 -40 78 -3 207 69
239 71 33 101 35 156 13z m-4564 -48 c12 -9 17 -23 14 -42 -2 -25 -8 -31 -33
-33 -19 -3 -33 2 -42 14 -17 24 -17 30 7 54 24 24 30 24 54 7z m-357 -49 c89
-41 153 -158 139 -255 -21 -154 -173 -247 -330 -201 -59 17 -140 102 -155 161
-24 97 -3 185 61 249 77 77 184 94 285 46z m1589 -77 c15 -30 7 -59 -22 -77
-46 -31 -108 22 -85 72 21 47 84 50 107 5z m550 31 c24 -16 35 -51 23 -74 -15
-29 -28 -38 -58 -38 -53 0 -80 62 -44 102 16 18 59 24 79 10z m551 0 c7 -4 16
-19 21 -32 13 -34 -4 -67 -40 -79 -25 -9 -33 -7 -54 14 -13 13 -24 33 -24 45
0 42 61 75 97 52z m633 -102 c57 -31 38 -109 -27 -110 -24 0 -53 34 -53 62 0
20 34 58 51 58 6 0 19 -5 29 -10z m778 -6 c41 -28 18 -104 -32 -104 -27 0 -40
9 -55 37 -15 30 -14 40 9 63 24 24 48 25 78 4z m-3190 -36 c30 -30 0 -75 -42
-64 -27 7 -38 35 -24 60 11 19 49 21 66 4z m4346 -230 c15 -25 -3 -52 -37 -56
-21 -3 -28 2 -33 22 -12 49 43 76 70 34z m-5709 -78 c0 -30 -4 -35 -26 -38
-33 -4 -53 20 -45 53 6 22 11 26 39 23 29 -3 32 -6 32 -38z m886 30 c22 -12
27 -68 7 -88 -20 -20 -65 -14 -82 10 -20 29 -20 47 1 70 18 20 45 23 74 8z
m5101 -15 c3 -14 1 -25 -3 -25 -5 0 -9 11 -9 25 0 14 2 25 4 25 2 0 6 -11 8
-25z m-3487 -170 c24 -23 25 -31 25 -135 0 -110 0 -112 -29 -141 l-29 -29
-366 0 -366 0 0 -220 0 -220 306 0 306 0 29 -29 c28 -29 29 -32 29 -136 0
-179 9 -175 -380 -175 l-290 0 0 -215 0 -215 386 0 386 0 29 -29 c29 -29 29
-31 29 -141 0 -104 -1 -112 -25 -135 l-24 -25 -528 0 c-576 0 -552 -2 -582 57
-8 15 -11 269 -11 887 l0 864 26 31 26 31 514 0 515 0 24 -25z m492 3 c11 -13
39 -72 62 -133 24 -60 87 -222 141 -360 55 -137 131 -332 171 -433 39 -101 73
-181 75 -179 2 2 23 53 45 113 96 259 108 291 123 324 8 19 41 100 71 180 108
278 189 471 207 490 17 18 32 20 148 20 127 0 129 0 149 -26 12 -15 21 -41 21
-58 0 -17 -151 -407 -340 -881 -254 -634 -347 -856 -366 -872 -27 -25 -73 -30
-105 -13 -31 17 -26 6 -274 620 -263 650 -438 1088 -447 1118 -11 39 -4 66 25
92 18 18 35 20 147 20 118 0 128 -1 147 -22z m2446 -16 c299 -148 280 -565
-32 -683 -74 -28 -202 -24 -275 9 -267 120 -302 485 -62 649 70 48 127 63 223
60 67 -3 92 -9 146 -35z m-4844 -129 c109 -83 170 -179 191 -305 33 -188 -73
-386 -251 -475 -86 -42 -168 -57 -289 -51 -109 5 -140 20 -140 64 0 21 23 54
38 54 4 0 47 -5 96 -10 191 -20 335 50 407 196 78 158 37 327 -109 445 -53 43
-65 72 -40 97 20 20 59 14 97 -15z m-284 -237 c91 -38 101 -187 15 -231 -43
-22 -112 -19 -145 7 -30 23 -55 74 -55 110 0 37 34 90 71 110 41 22 68 23 114
4z m4593 -537 c6 -49 -58 -65 -73 -18 -9 27 13 51 44 47 20 -2 27 -9 29 -29z
m465 -279 c178 -67 229 -307 93 -442 -77 -78 -211 -101 -312 -54 -138 64 -193
239 -118 377 66 120 203 169 337 119z m-5369 -96 c17 -17 20 -33 8 -50 -21
-31 -72 -18 -72 19 0 43 35 60 64 31z m5764 -32 c2 -8 -3 -10 -14 -5 -13 5
-15 3 -9 -7 5 -8 4 -11 -3 -6 -14 8 -4 38 11 33 6 -2 13 -9 15 -15z m-5321
-83 c107 -45 144 -209 71 -311 -70 -99 -240 -108 -325 -16 -89 95 -62 266 52
326 64 34 126 34 202 1z m4135 -146 c43 -39 -4 -109 -57 -85 -33 15 -43 57
-20 82 22 24 52 26 77 3z m-3666 -288 c32 -49 -22 -104 -74 -76 -29 16 -37 48
-18 76 23 34 70 34 92 0z m4259 -106 c-5 -15 -4 -19 4 -15 6 4 11 14 11 22 0
8 5 14 11 14 5 0 8 -4 4 -9 -3 -5 -1 -12 5 -16 5 -3 10 0 11 7 0 7 5 3 11 -10
9 -18 7 -26 -7 -42 -23 -26 -43 -25 -66 2 -22 24 -21 21 -13 42 3 9 10 13 15
10 5 -3 9 0 9 5 0 6 3 11 6 11 3 0 2 -10 -1 -21z m571 -14 c8 -20 -14 -55 -34
-55 -40 0 -59 60 -25 79 20 11 51 -2 59 -24z m-926 -106 c27 -49 -25 -103 -69
-73 -23 16 -27 44 -11 75 15 27 66 26 80 -2z m-4358 -36 c24 -21 23 -55 -2
-78 -17 -15 -24 -16 -45 -7 -36 17 -44 60 -15 84 27 22 38 23 62 1z m1893
-603 c29 -7 29 -8 -10 -10 -32 -1 -36 -3 -20 -10 19 -8 19 -9 -2 -9 -20 -1
-23 -6 -23 -41 l0 -40 -40 0 c-39 0 -40 -1 -40 -35 0 -25 -4 -35 -15 -35 -22
0 -75 -28 -75 -40 0 -5 10 -11 23 -13 12 -2 -504 -4 -1148 -3 l-1170 1 -58 29
c-78 40 -137 122 -137 191 l0 25 1343 -1 c738 -1 1356 -5 1372 -9z m168 3
c-13 -2 -33 -2 -45 0 -13 2 -3 4 22 4 25 0 35 -2 23 -4z m372 -103 c55 -51 50
-146 -8 -185 -64 -41 -130 -26 -176 41 -31 45 -22 95 25 142 32 32 38 34 85
30 34 -4 58 -13 74 -28z m141 -1395 l29 -15 -47 0 c-27 0 -48 -4 -48 -10 0 -5
-6 -10 -14 -10 -8 0 -16 -4 -18 -9 -1 -4 -64 -11 -138 -14 -106 -4 -136 -9
-146 -21 -6 -9 -16 -16 -23 -16 -6 0 -11 -4 -11 -10 0 -5 5 -10 11 -10 5 0 7
-4 4 -10 -3 -5 -1 -10 6 -10 8 0 8 -4 -1 -15 -10 -13 -15 -13 -21 -3 -6 9 -10
7 -15 -7 -5 -11 -17 -28 -29 -37 -15 -13 -16 -17 -5 -18 13 0 13 -1 0 -10 -12
-8 -10 -10 10 -11 20 -1 18 -3 -10 -9 -27 -6 -29 -8 -11 -9 17 -1 22 -4 15
-11 -8 -8 -812 -16 -819 -8 -1 2 25 67 59 145 l61 143 566 0 c484 0 571 -2
595 -15z"/>
<path d="M7550 7393 c-33 -13 -50 -37 -50 -73 0 -77 85 -108 134 -49 32 38 33
60 4 93 -24 26 -62 39 -88 29z"/>
<path d="M2530 7297 c-112 -75 -88 -242 38 -276 96 -26 192 49 192 149 0 116
-136 191 -230 127z"/>
<path d="M7444 6659 c-119 -45 -187 -146 -188 -274 0 -59 4 -79 29 -123 32
-60 75 -101 138 -134 64 -34 184 -32 253 4 192 101 217 351 48 480 -90 69
-183 85 -280 47z m198 -111 c20 -12 39 -27 42 -33 2 -7 -13 -32 -34 -56 -24
-27 -40 -38 -40 -29 -1 8 -8 -10 -16 -40 -18 -65 -50 -102 -110 -125 -29 -11
-42 -21 -37 -28 4 -7 -7 -1 -24 13 -18 14 -41 43 -53 66 -82 163 107 324 272
232z"/>
<path d="M7451 5452 c-146 -74 -128 -282 29 -337 52 -18 87 -13 147 21 120 69
119 239 -1 309 -52 30 -125 33 -175 7z"/>
<path d="M2555 5249 c-36 -18 -60 -61 -60 -107 0 -38 5 -48 39 -79 35 -32 43
-35 83 -30 50 5 80 28 100 76 19 45 9 84 -33 121 -37 32 -88 39 -129 19z"/>
<path d="M7455 4758 c5 -18 4 -20 -4 -8 -6 8 -11 11 -11 6 0 -5 -7 -3 -15 4
-8 7 -15 10 -15 6 0 -3 11 -13 25 -22 22 -14 26 -14 40 -1 8 9 15 22 15 29 0
10 -3 9 -10 -2 -6 -10 -10 -11 -10 -2 0 6 -5 12 -11 12 -6 0 -8 -9 -4 -22z"/>
<path d="M5228 2533 c12 -2 30 -2 40 0 9 3 -1 5 -23 4 -22 0 -30 -2 -17 -4z"/>
<path d="M6883 2946 c-28 -24 -28 -25 -32 -163 -6 -242 34 -396 135 -521 38
-47 54 -74 52 -92 l-3 -25 -197 4 -196 3 -26 -25 c-48 -48 -30 -129 41 -182
21 -16 66 -53 100 -83 67 -59 67 -57 6 -101 -39 -27 -43 -63 -11 -85 20 -14
135 -16 1034 -16 982 0 1011 1 1028 19 11 12 16 31 14 53 l-3 33 -97 0 c-73 1
-106 5 -135 20 l-39 19 91 70 c49 39 111 87 137 106 74 55 89 112 41 150 -27
21 -35 22 -269 19 -218 -3 -242 -2 -258 14 -16 16 -15 20 36 77 l53 60 70 -6
c236 -21 416 184 350 400 -35 117 -97 166 -277 223 -10 3 -18 10 -18 15 0 33
-58 35 -832 37 l-766 1 -29 -24z m1010 -152 c20 -4 37 -11 37 -15 0 -5 -3 -8
-7 -8 -22 4 -32 -3 -27 -16 4 -9 0 -15 -8 -15 -9 0 -14 -12 -14 -35 0 -19 4
-35 8 -35 4 0 8 5 8 11 0 5 5 7 10 4 8 -5 8 -11 0 -20 -6 -7 -7 -21 -4 -31 6
-16 5 -17 -7 -6 -16 15 -33 16 -24 2 4 -6 3 -16 -3 -23 -18 -24 -22 -47 -7
-47 8 0 15 9 15 19 0 11 5 23 12 27 8 5 9 0 5 -17 -4 -13 -7 -27 -7 -31 0 -5
-6 -8 -14 -8 -8 0 -18 -5 -22 -12 -4 -6 -3 -8 4 -4 6 3 13 2 17 -4 3 -6 -1
-13 -10 -16 -9 -4 -14 -13 -11 -20 3 -7 -1 -20 -9 -28 -8 -8 -15 -20 -15 -26
0 -35 -204 -245 -250 -258 -14 -4 -75 -7 -136 -7 l-111 0 -59 44 c-175 128
-263 299 -264 509 l0 72 428 0 c235 0 444 -3 465 -6z m674 -69 c57 -16 96
-111 73 -179 -12 -38 -80 -105 -108 -107 -29 -2 -44 2 -59 17 -13 12 -12 20 1
62 13 40 35 165 36 210 0 8 7 11 18 8 9 -2 27 -7 39 -11z m-1182 -745 c-33 -4
-56 -7 -52 -8 5 -1 5 -8 0 -14 -12 -21 -9 -53 7 -60 10 -4 4 -7 -15 -8 l-30
-2 29 -10 c52 -19 6 -28 -152 -28 -173 0 -167 -2 -281 84 l-75 56 315 -2 c173
-1 287 -4 254 -8z"/>
<path d="M7786 2444 c-4 -10 -1 -14 6 -12 15 5 23 28 10 28 -5 0 -13 -7 -16
-16z"/>
</g>
</svg>
