<?xml version="1.0" standalone="no"?>
<!DOCTYPE svg PUBLIC "-//W3C//DTD SVG 20010904//EN"
 "http://www.w3.org/TR/2001/REC-SVG-20010904/DTD/svg10.dtd">
<svg version="1.0" xmlns="http://www.w3.org/2000/svg"
 width="1024.000000pt" height="1024.000000pt" viewBox="0 0 1024.000000 1024.000000"
 preserveAspectRatio="xMidYMid meet">

<g transform="translate(0.000000,1024.000000) scale(0.100000,-0.100000)"
fill="#000000" stroke="none">
<path d="M2050 8012 c-153 -40 -279 -158 -332 -309 l-23 -68 0 -1860 0 -1860
22 -55 c32 -79 88 -147 161 -197 123 -84 13 -78 1460 -74 l1283 3 -5 -23 c-10
-41 -107 -519 -126 -614 -9 -49 -22 -116 -29 -147 l-12 -58 -180 0 c-241 0
-250 -4 -303 -136 -13 -32 -56 -133 -96 -224 -88 -201 -100 -269 -56 -313 l27
-27 1249 2 c1246 3 1249 3 1270 24 33 33 36 82 7 150 -13 32 -52 127 -86 209
-102 247 -126 291 -162 304 -19 6 -107 11 -214 11 l-182 0 -31 153 c-17 83
-56 268 -86 410 -31 141 -56 263 -56 269 0 8 233 9 880 5 l880 -5 48 47 c29
28 85 65 147 96 108 54 137 83 137 137 0 46 -19 80 -87 158 -77 87 -99 137
-99 226 -1 64 3 79 39 150 28 55 53 88 83 111 52 40 71 41 111 7 46 -39 43
-85 -8 -134 -51 -49 -61 -69 -61 -128 0 -54 21 -92 92 -170 93 -102 119 -238
63 -340 -29 -54 -77 -98 -144 -133 -23 -11 -41 -22 -41 -23 0 -1 49 -1 110 0
108 2 111 3 157 37 27 19 81 51 121 72 80 42 106 68 123 126 17 55 -3 116 -58
180 -54 64 -66 91 -53 123 11 31 39 46 81 46 44 0 106 -65 154 -162 32 -66 36
-83 37 -152 0 -111 -40 -194 -121 -251 -23 -15 -39 -30 -37 -32 8 -8 151 39
193 64 92 53 169 155 203 268 16 55 25 3571 9 3689 -16 123 -51 198 -131 281
-74 79 -153 125 -246 144 -38 8 -900 11 -3035 10 -2773 0 -2987 -1 -3047 -17z
m6017 -203 c100 -19 196 -110 228 -213 12 -40 15 -114 14 -390 0 -200 -4 -333
-9 -321 -5 11 -9 15 -9 8 -1 -6 -21 -18 -45 -26 l-45 -15 -3 341 c-3 330 -4
343 -25 383 -31 58 -84 101 -148 119 -49 15 -330 16 -2942 13 -2645 -3 -2891
-4 -2923 -19 -53 -25 -97 -74 -120 -135 -20 -54 -20 -68 -20 -1619 l0 -1565
1778 0 c1833 0 1841 0 1827 -37 -2 -7 2 -13 10 -13 10 0 12 -6 8 -18 -13 -34
-37 -46 -102 -54 -36 -4 -870 -7 -1853 -7 l-1788 -1 0 28 c1 15 0 767 -2 1672
l-2 1645 25 56 c46 99 128 161 231 177 79 12 5852 3 5915 -9z m-5775 -296 c24
-22 23 -55 -5 -81 -51 -48 -112 13 -77 79 13 24 57 25 82 2z m5346 -28 c71
-30 121 -102 122 -174 0 -79 -70 -161 -152 -176 -72 -14 -160 31 -195 98 -40
78 -3 207 69 239 71 33 101 35 156 13z m-4564 -48 c12 -9 17 -23 14 -42 -2
-24 -8 -31 -31 -33 -53 -6 -73 32 -37 68 24 24 30 24 54 7z m-396 -32 c169
-50 236 -265 124 -395 -66 -78 -173 -108 -276 -78 -58 17 -139 101 -156 162
-34 123 27 259 135 300 78 29 105 31 173 11z m1597 -65 c14 -5 29 -20 35 -34
28 -74 -72 -117 -110 -46 -15 28 -13 38 15 65 28 29 26 28 60 15z m590 -4 c11
-8 18 -26 18 -46 0 -37 -23 -60 -62 -60 -53 0 -80 62 -44 102 19 21 62 24 88
4z m541 6 c27 -18 35 -51 20 -81 -21 -39 -62 -46 -93 -15 -27 27 -29 51 -7 82
15 22 57 30 80 14z m634 -102 c57 -31 38 -109 -27 -110 -24 0 -53 34 -53 62 0
20 34 58 51 58 6 0 19 -5 29 -10z m778 -6 c44 -31 17 -104 -39 -104 -21 0 -32
7 -44 30 -20 38 -19 46 5 70 24 24 48 25 78 4z m-3182 -49 c4 -15 1 -32 -6
-40 -18 -21 -57 -19 -70 5 -16 30 4 60 40 60 23 0 31 -5 36 -25z m4338 -217
c16 -26 -4 -53 -40 -53 -23 0 -30 5 -32 23 -7 47 47 69 72 30z m-5701 -60 c8
-30 -9 -58 -36 -58 -29 0 -47 18 -47 45 0 29 8 35 46 35 24 0 33 -5 37 -22z
m878 12 c22 -12 27 -68 7 -88 -20 -20 -65 -14 -82 10 -20 29 -20 47 1 70 18
20 45 23 74 8z m3888 -31 c-16 -10 -23 -4 -14 10 3 6 11 8 17 5 6 -4 5 -9 -3
-15z m-2274 -154 c24 -23 25 -31 25 -135 0 -110 0 -112 -29 -141 l-29 -29
-366 0 -366 0 0 -220 0 -220 304 0 304 0 31 -26 31 -26 0 -110 c0 -60 -5 -118
-11 -130 -23 -43 -60 -48 -369 -48 l-290 0 0 -215 0 -215 386 0 386 0 29 -29
c29 -29 29 -31 29 -141 0 -104 -1 -112 -25 -135 l-24 -25 -528 0 c-576 0 -552
-2 -582 57 -8 15 -11 269 -11 887 l0 864 26 31 26 31 514 0 515 0 24 -25z
m492 3 c12 -13 39 -70 61 -128 34 -89 126 -323 344 -879 26 -66 44 -98 48 -90
5 8 22 52 38 99 34 93 96 255 162 420 23 58 54 139 70 180 41 108 140 351 156
381 7 15 21 29 29 33 9 3 72 6 140 6 123 0 124 0 145 -27 17 -22 21 -37 17
-68 -2 -22 -73 -211 -157 -420 -84 -209 -178 -445 -210 -525 -197 -499 -313
-777 -332 -797 -15 -16 -33 -23 -61 -23 -47 0 -83 34 -109 101 -9 24 -96 240
-193 479 -509 1256 -493 1212 -445 1260 18 18 34 20 148 20 120 0 130 -1 149
-22z m2446 -16 c168 -83 252 -267 198 -438 -50 -162 -185 -264 -350 -264 -174
0 -312 100 -363 264 -47 153 14 325 146 414 71 47 127 62 223 59 67 -3 92 -9
146 -35z m-4831 -139 c96 -70 156 -168 179 -294 33 -187 -73 -387 -252 -475
-91 -45 -159 -58 -283 -52 -118 5 -146 19 -146 69 0 44 26 52 128 40 195 -21
341 47 413 195 78 158 35 329 -113 448 -57 47 -65 92 -18 108 21 7 38 0 92
-39z m-299 -227 c48 -20 69 -50 75 -104 8 -89 -41 -142 -131 -142 -101 0 -159
110 -105 197 34 57 98 76 161 49z m4597 -525 c14 -28 -18 -66 -48 -57 -26 9
-38 42 -22 61 18 21 57 18 70 -4z m463 -291 c142 -53 212 -228 147 -364 -87
-181 -325 -215 -454 -65 -73 86 -85 207 -30 309 66 121 203 170 337 120z
m-5363 -100 c14 -26 5 -56 -19 -63 -27 -7 -51 11 -51 36 0 46 50 64 70 27z
m5756 -21 c8 -14 -11 -33 -25 -25 -11 7 -4 36 9 36 5 0 12 -5 16 -11z m-5315
-90 c24 -12 52 -38 69 -66 94 -148 1 -326 -170 -326 -121 0 -210 88 -210 208
0 162 165 259 311 184z m4131 -146 c43 -39 -4 -109 -57 -85 -33 15 -43 57 -20
82 22 24 52 26 77 3z m-3665 -289 c15 -24 15 -29 2 -53 -11 -20 -22 -26 -49
-26 -27 0 -38 6 -49 26 -13 24 -13 29 2 53 12 18 26 26 47 26 21 0 35 -8 47
-26z m4288 -94 c-3 -6 1 -7 9 -4 23 9 31 -34 10 -57 -23 -26 -50 -24 -69 5
-15 23 -11 61 6 50 5 -3 9 -1 9 3 0 5 9 9 20 10 11 1 18 -2 15 -7z m530 -10
c35 -38 -17 -94 -53 -58 -18 18 -15 55 6 67 24 14 26 14 47 -9z m-913 -125
c23 -51 -27 -99 -71 -68 -40 28 -19 93 30 93 22 0 32 -6 41 -25z m-4360 -32
c24 -21 23 -55 -2 -78 -17 -15 -24 -16 -45 -7 -36 17 -44 60 -15 84 27 22 38
23 62 1z m2973 -273 c12 -5 -1 -6 -35 -3 -30 3 -57 7 -59 9 -9 8 75 2 94 -6z
m12 -26 c-3 -3 -12 -4 -19 -1 -8 3 -5 6 6 6 11 1 17 -2 13 -5z m-637 -302
c-30 -4 -32 -6 -15 -13 14 -5 6 -7 -25 -5 -32 3 -36 2 -15 -3 38 -8 21 -19
-23 -16 l-33 2 27 -24 c15 -12 21 -23 14 -23 -7 0 -10 -3 -7 -6 4 -4 17 0 30
9 31 20 99 8 133 -24 54 -50 49 -145 -9 -184 -62 -40 -131 -26 -173 36 -10 16
-22 29 -26 29 -5 0 -9 12 -9 28 l-1 27 -7 -29 c-5 -23 -14 -32 -38 -38 -18 -5
-654 -7 -1415 -6 l-1383 3 -57 28 c-77 38 -138 123 -138 192 l0 25 1603 -2
c881 -1 1586 -3 1567 -6z m-7 -39 c4 -3 -5 -12 -19 -19 -22 -12 -28 -11 -42 2
-15 15 -14 16 5 10 12 -4 24 -2 28 4 7 11 19 13 28 3z m63 -14 c47 -28 43 -33
-6 -8 -38 20 -48 29 -34 29 4 0 22 -9 40 -21z m195 -1439 c17 -10 18 -13 5
-25 -8 -8 -23 -15 -33 -16 -16 0 -16 -1 2 -9 13 -5 -34 -10 -125 -13 -125 -4
-163 -7 -214 -15 -5 -1 -6 -5 -3 -9 4 -3 0 -17 -8 -30 -9 -13 -14 -27 -11 -31
3 -5 -16 -30 -40 -58 -25 -27 -48 -54 -52 -61 -5 -9 -113 -12 -415 -14 -224
-1 -409 0 -411 2 -2 2 24 68 58 146 l61 143 583 0 c388 0 590 -4 603 -10z"/>
<path d="M7550 7393 c-33 -12 -50 -37 -50 -73 0 -77 85 -108 134 -49 14 17 26
39 26 49 0 42 -69 87 -110 73z"/>
<path d="M2528 7295 c-49 -33 -68 -72 -68 -134 0 -44 5 -56 36 -91 47 -51 95
-66 153 -45 95 33 136 124 96 209 -38 80 -147 110 -217 61z"/>
<path d="M7444 6659 c-119 -45 -187 -146 -188 -274 0 -59 4 -79 29 -124 102
-186 344 -214 484 -55 107 122 87 306 -45 405 -92 70 -183 86 -280 48z m163
-92 c35 -13 83 -52 83 -67 0 -14 -71 -91 -79 -86 -4 3 -12 -14 -19 -38 -15
-58 -57 -97 -127 -121 -20 -6 -20 -7 -1 -21 35 -25 3 -15 -36 12 -72 51 -97
148 -58 230 40 81 149 123 237 91z"/>
<path d="M7451 5452 c-146 -74 -127 -290 30 -336 79 -24 166 10 211 82 32 51
31 133 -1 185 -48 78 -160 110 -240 69z"/>
<path d="M2555 5249 c-35 -18 -58 -59 -59 -105 -1 -37 4 -49 32 -76 28 -28 39
-33 81 -33 56 0 85 20 108 74 19 45 9 84 -33 121 -37 32 -88 39 -129 19z"/>
<path d="M7445 4760 c-3 -6 1 -7 9 -4 18 7 21 14 7 14 -6 0 -13 -4 -16 -10z"/>
<path d="M4840 4020 c-41 -6 -42 -7 -10 -8 19 0 58 3 85 8 47 7 48 7 10 7 -22
0 -60 -3 -85 -7z"/>
<path d="M4705 3930 c-3 -5 -1 -10 4 -10 6 0 11 5 11 10 0 6 -2 10 -4 10 -3 0
-8 -4 -11 -10z"/>
<path d="M4962 3905 c-17 -37 -14 -45 4 -12 9 16 14 31 11 33 -2 2 -9 -7 -15
-21z"/>
<path d="M4800 3910 c0 -5 6 -10 14 -10 8 0 18 5 21 10 3 6 -3 10 -14 10 -12
0 -21 -4 -21 -10z"/>
<path d="M4890 3850 c0 -5 5 -10 11 -10 5 0 7 5 4 10 -3 6 -8 10 -11 10 -2 0
-4 -4 -4 -10z"/>
<path d="M1020 3398 c-27 -29 -27 -91 0 -118 25 -25 77 -26 108 -2 33 26 39
80 12 115 -28 35 -89 38 -120 5z"/>
<path d="M8432 3410 c-45 -18 -55 -88 -17 -125 24 -25 25 -25 217 -25 209 0
229 4 248 56 13 33 -7 83 -37 95 -31 12 -381 11 -411 -1z"/>
<path d="M1456 3131 c-9 -10 -19 -35 -23 -54 -5 -31 -1 -40 25 -67 l30 -30
431 0 c236 0 441 4 454 9 40 15 57 40 57 82 0 26 -7 46 -20 59 -19 19 -33 20
-478 20 -436 0 -460 -1 -476 -19z"/>
<path d="M6887 2983 c-48 -8 -57 -42 -57 -223 0 -176 15 -275 55 -365 26 -60
92 -161 124 -189 11 -10 18 -22 16 -27 -3 -4 -96 -8 -206 -9 -136 0 -206 -4
-219 -13 -44 -27 -51 -111 -14 -159 21 -28 120 -111 188 -158 l51 -35 -48 -5
c-56 -7 -80 -28 -80 -70 0 -66 -9 -64 431 -70 218 -3 686 -3 1039 0 627 5 643
5 657 25 21 27 20 58 -3 86 -18 23 -27 24 -146 27 l-126 4 69 51 c214 161 232
179 232 228 0 29 -26 75 -47 83 -10 4 -134 7 -277 6 l-259 0 59 62 59 62 95 1
c82 0 103 4 152 27 76 35 141 103 168 176 28 74 24 186 -8 249 -49 94 -134
156 -233 169 -39 5 -48 11 -53 31 -4 13 -18 28 -32 33 -24 10 -1526 12 -1587
3z m1039 -230 c-3 -27 -6 -55 -7 -63 0 -8 -3 -22 -6 -30 -3 -8 -7 -21 -9 -29
-1 -8 -6 -26 -9 -40 -4 -14 -6 -27 -6 -28 2 -11 -88 -167 -116 -203 -46 -58
-127 -134 -177 -166 -36 -24 -44 -25 -155 -22 -114 3 -117 4 -166 37 -76 52
-166 150 -203 219 -44 82 -72 197 -72 294 l0 78 466 0 466 0 -6 -47z m625 -25
c40 -13 76 -49 85 -83 15 -58 -20 -131 -74 -159 -28 -14 -102 -28 -102 -20 0
3 9 30 19 62 11 31 22 92 26 135 4 42 8 77 10 77 1 0 17 -5 36 -12z m-1130
-749 c-16 -6 -22 -15 -18 -28 2 -10 1 -25 -4 -32 -5 -9 -3 -16 9 -21 13 -5 12
-7 -7 -7 l-24 -1 23 -20 23 -20 -206 0 -206 0 -68 46 c-37 26 -81 57 -96 70
l-29 24 314 -1 c207 0 305 -3 289 -10z"/>
<path d="M2001 2746 c-47 -26 -55 -93 -16 -131 l24 -25 337 0 c296 0 339 2
364 17 47 27 54 90 15 128 l-24 25 -338 0 c-265 -1 -343 -4 -362 -14z"/>
<path d="M3062 2742 c-34 -27 -40 -89 -12 -124 l21 -28 250 0 250 0 24 25 c36
35 35 96 -1 124 -25 20 -39 21 -268 21 -216 0 -243 -2 -264 -18z"/>
<path d="M6526 2734 c-24 -23 -30 -61 -16 -95 17 -39 37 -49 104 -49 71 0 110
29 110 83 0 60 -25 77 -110 77 -53 0 -77 -4 -88 -16z"/>
<path d="M1558 2392 l-58 -3 0 -54 c0 -30 -4 -55 -10 -55 -5 0 -10 25 -10 55
l0 55 -55 0 -55 0 -1 -37 c-1 -21 -2 -45 -3 -53 -1 -12 -22 -16 -99 -20 -89
-4 -101 -7 -118 -29 -10 -13 -19 -36 -19 -53 0 -36 24 -83 45 -92 9 -3 515 -6
1125 -6 l1108 0 31 26 c41 34 44 92 6 129 l-24 25 -900 0 -900 0 -3 58 -3 57
-57 -3z"/>
<path d="M2701 1784 c-44 -56 -16 -127 55 -140 38 -7 313 2 337 12 17 6 37 47
37 75 0 23 -18 61 -34 71 -6 4 -93 8 -193 8 l-182 0 -20 -26z"/>
<path d="M3834 1802 c-18 -12 -34 -49 -34 -79 0 -33 30 -70 63 -78 12 -3 252
-5 534 -3 l511 3 26 24 c36 34 32 107 -8 133 -6 4 -252 8 -546 8 -294 0 -540
-4 -546 -8z"/>
<path d="M6060 1792 c-13 -10 -23 -33 -27 -59 -5 -35 -2 -45 20 -67 50 -50
137 -30 161 38 9 26 -11 84 -34 96 -30 16 -96 12 -120 -8z"/>
<path d="M1750 1780 c-12 -12 -20 -33 -20 -55 0 -48 29 -75 80 -75 35 0 43 5
60 33 22 35 20 70 -7 100 -23 24 -87 23 -113 -3z"/>
<path d="M2315 1780 c-43 -47 -12 -130 49 -130 63 1 99 60 68 114 -15 25 -25
32 -58 34 -30 2 -45 -2 -59 -18z"/>
<path d="M3447 1782 c-9 -10 -20 -32 -23 -49 -5 -26 -1 -37 19 -57 31 -31 65
-33 101 -5 32 25 37 86 8 112 -25 23 -85 22 -105 -1z"/>
<path d="M5417 1782 c-23 -25 -22 -94 1 -115 46 -41 114 -28 137 27 15 37 12
59 -13 89 -21 24 -103 24 -125 -1z"/>
<path d="M2512 1436 c-60 -27 -68 -119 -16 -165 39 -33 108 -25 141 16 69 86
-22 195 -125 149z"/>
<path d="M3425 1438 c-33 -19 -44 -41 -45 -86 0 -55 11 -76 49 -92 84 -34 168
42 140 127 -17 53 -93 80 -144 51z"/>
<path d="M7317 1435 c-55 -31 -64 -110 -17 -157 28 -28 36 -30 78 -25 65 7 96
43 89 105 -3 25 -13 53 -24 64 -27 26 -90 33 -126 13z"/>
<path d="M1732 1430 c-47 -20 -54 -118 -10 -152 32 -24 288 -27 308 -3 10 11
36 15 111 15 86 0 102 3 119 20 25 25 26 62 2 83 -15 13 -40 17 -118 17 -71 1
-104 5 -118 15 -15 12 -50 15 -145 14 -69 0 -136 -4 -149 -9z"/>
<path d="M4255 1405 c-47 -46 -25 -124 37 -140 13 -3 144 -5 291 -3 l269 3 25
29 c20 24 24 36 18 65 -12 71 -13 71 -332 71 l-284 0 -24 -25z"/>
<path d="M5180 1412 c-13 -10 -23 -33 -27 -59 -5 -35 -2 -45 20 -67 l26 -26
410 0 410 0 28 24 c23 20 28 32 27 67 -3 82 12 79 -459 79 -379 0 -415 -1
-435 -18z"/>
<path d="M6503 1415 c-25 -17 -37 -73 -24 -108 16 -42 62 -49 297 -45 226 3
236 5 255 57 12 30 -6 87 -31 101 -11 6 -115 10 -247 10 -185 0 -233 -3 -250
-15z"/>
</g>
</svg>
