<?xml version="1.0" standalone="no"?>
<!DOCTYPE svg PUBLIC "-//W3C//DTD SVG 20010904//EN"
 "http://www.w3.org/TR/2001/REC-SVG-20010904/DTD/svg10.dtd">
<svg version="1.0" xmlns="http://www.w3.org/2000/svg"
 width="1024.000000pt" height="1024.000000pt" viewBox="0 0 1024.000000 1024.000000"
 preserveAspectRatio="xMidYMid meet">

<g transform="translate(0.000000,1024.000000) scale(0.100000,-0.100000)"
fill="#000000" stroke="none">
<path d="M2736 7979 c-203 -34 -341 -145 -417 -334 l-24 -60 -3 -1302 -2
-1303 77 0 c100 0 140 -12 191 -55 72 -63 82 -106 82 -375 0 -127 1 -231 3
-231 1 -1 72 -4 158 -8 147 -6 158 -7 196 -33 100 -66 123 -137 123 -385 l0
-173 83 0 82 0 -1 135 -1 135 2150 0 c1183 0 2148 -2 2146 -5 -3 -2 -27 -6
-54 -9 -28 -3 -52 -5 -54 -5 -2 -1 8 -12 22 -25 17 -16 22 -27 16 -37 -7 -11
-9 -11 -9 -1 0 25 -25 38 -77 41 -36 2 -53 -1 -53 -9 0 -7 7 -9 16 -6 9 4 22
2 29 -4 9 -8 15 -8 20 0 8 13 35 -5 35 -23 0 -6 -6 -2 -14 8 -13 18 -13 18
-24 -1 -8 -14 -12 -15 -12 -4 0 13 -1 13 -10 0 -9 -13 -11 -13 -20 0 -7 11 -9
5 -5 -20 4 -26 3 -30 -4 -15 -8 19 -9 19 -15 -6 -5 -16 -19 -30 -39 -38 -18
-7 -27 -15 -20 -18 6 -2 24 4 39 13 15 10 36 20 48 21 17 3 15 -1 -9 -17 -16
-11 -34 -20 -38 -20 -17 0 -54 -54 -49 -73 4 -14 7 -15 13 -6 9 16 14 12 23
-18 6 -18 4 -22 -7 -17 -8 3 -18 1 -22 -5 -3 -6 -17 -11 -29 -11 -28 0 -78
-24 -69 -33 3 -4 2 -8 -3 -8 -70 -9 -73 -8 -79 11 -3 11 -3 25 1 31 4 7 3 9
-3 6 -6 -4 -18 2 -28 13 -17 19 -14 25 10 20 6 -1 5 4 -2 11 -9 9 -7 18 9 39
15 21 18 32 10 46 -5 11 -7 25 -4 33 4 12 3 12 -11 0 -13 -12 -13 -16 0 -31 9
-10 12 -22 7 -29 -20 -33 -48 -58 -58 -52 -6 4 -5 0 1 -9 7 -8 9 -19 5 -23 -4
-5 -2 -5 4 -2 10 6 44 -25 44 -41 0 -4 8 -18 17 -32 9 -13 18 -34 19 -48 3
-23 1 -23 -57 -21 -35 2 -64 -2 -71 -9 -18 -18 -27 -15 -48 21 -24 39 -26 28
-3 -16 23 -45 24 -65 1 -59 -12 3 -18 -1 -18 -11 0 -12 13 -17 48 -20 26 -2
-744 -4 -1710 -5 l-1758 -2 0 100 c0 94 -2 103 -25 125 l-24 25 -266 0 -265 0
0 152 c0 131 -3 157 -20 192 -32 67 -44 70 -237 76 -238 7 -217 -24 -223 328
-4 196 -9 283 -18 299 -27 47 -47 53 -197 53 -136 0 -142 -1 -164 -23 -32 -35
-33 -100 -2 -138 17 -21 30 -25 106 -29 l87 -5 -1 -230 c-2 -269 7 -317 68
-375 53 -51 95 -60 270 -60 l151 0 0 -120 0 -120 -518 0 c-490 0 -520 -1 -535
-18 -14 -16 -17 -44 -17 -179 l0 -160 -71 -7 c-97 -9 -164 -43 -232 -116 -71
-76 -99 -147 -98 -247 1 -128 32 -204 118 -284 58 -54 141 -89 230 -96 60 -5
61 -6 67 -39 4 -18 22 -64 42 -103 41 -82 127 -166 213 -209 l56 -27 594 -3
c678 -3 624 -10 736 90 75 67 128 149 151 235 17 60 19 107 19 395 l0 328 443
0 442 0 -4 -22 c-11 -51 -80 -353 -111 -488 -18 -80 -38 -172 -44 -205 -7 -33
-14 -70 -17 -83 -4 -22 -2 -22 85 -22 77 0 90 3 95 18 4 13 46 209 46 216 0 0
268 0 595 -2 369 -1 595 -6 595 -12 0 -5 -7 -7 -16 -3 -9 3 -23 -3 -35 -16
-11 -11 -15 -21 -9 -21 5 0 10 -6 10 -14 0 -11 -10 -13 -40 -9 -33 5 -40 3
-40 -11 0 -14 4 -15 20 -6 26 14 49 2 29 -14 -16 -13 -23 -56 -9 -56 6 0 10 6
10 14 0 8 7 16 15 20 8 3 15 14 15 25 0 11 5 23 10 26 6 3 10 13 10 21 0 9 -5
12 -12 8 -7 -4 -8 -3 -4 5 6 9 11 9 22 0 11 -9 14 -8 14 2 1 23 16 -11 24 -51
4 -25 3 -31 -4 -20 -5 8 -10 23 -10 33 0 20 -15 23 -26 5 -4 -6 -2 -14 4 -16
7 -2 12 -10 12 -17 0 -8 9 -19 20 -25 11 -6 20 -20 20 -31 0 -12 -4 -17 -11
-14 -6 4 -16 -1 -23 -11 -8 -10 -20 -15 -30 -11 -9 4 -16 2 -16 -3 0 -6 6 -11
13 -12 6 -1 -13 -4 -43 -8 -50 -6 -47 -7 40 -9 52 -2 136 -5 187 -7 l92 -3
-14 47 c-14 46 -185 765 -185 776 0 3 367 6 815 6 552 0 831 4 867 11 92 19
197 76 263 143 72 73 109 139 135 242 20 76 20 117 20 1964 0 1208 -4 1907
-10 1941 -5 30 -28 91 -50 135 -67 137 -190 231 -351 269 -56 13 -341 15
-2329 14 -1246 -1 -2287 -5 -2314 -10z m2297 -473 c59 -18 130 -69 162 -118
14 -22 50 -108 80 -191 137 -390 274 -775 345 -967 51 -138 173 -475 265 -730
41 -113 97 -268 125 -345 29 -77 57 -155 63 -172 11 -34 24 -42 32 -20 2 6 61
176 131 377 69 201 152 442 184 535 32 94 104 303 160 465 56 162 157 458 225
658 69 200 135 382 147 405 80 145 294 142 370 -6 35 -69 28 -108 -75 -407
-53 -151 -140 -405 -195 -565 -55 -159 -191 -551 -302 -870 -111 -319 -224
-643 -250 -720 -57 -168 -79 -213 -132 -271 -41 -45 -121 -90 -180 -102 -61
-13 -171 -5 -231 17 -110 38 -184 118 -231 251 -15 41 -51 140 -81 220 -86
232 -456 1253 -591 1635 -156 438 -160 448 -191 476 l-25 24 -739 3 c-685 2
-741 1 -765 -15 -53 -34 -54 -45 -54 -538 l0 -455 678 0 c633 0 680 -2 717
-19 158 -71 167 -300 15 -377 l-45 -23 -682 -1 -683 0 0 -335 c0 -366 3 -387
56 -422 27 -17 77 -18 884 -23 l856 -5 42 -28 c86 -56 113 -177 60 -268 -15
-25 -46 -59 -69 -75 l-42 -29 -971 0 -971 0 -47 22 c-71 32 -141 103 -174 176
l-29 62 0 1255 0 1255 23 57 c41 101 135 184 236 209 17 4 441 7 942 8 747 1
919 -1 957 -13z m1412 -517 c93 -56 129 -161 86 -254 -65 -141 -250 -158 -338
-32 -38 54 -44 146 -14 204 48 96 178 136 266 82z m-2608 -294 c48 -20 71 -41
95 -89 55 -107 -6 -241 -120 -262 -148 -28 -273 116 -214 249 43 98 145 141
239 102z m3760 -2757 c-2 -13 -4 -5 -4 17 -1 22 1 32 4 23 2 -10 2 -28 0 -40z
m-168 -69 c1 8 3 12 6 9 3 -3 2 -13 -1 -22 -5 -14 -9 -15 -15 -4 -5 7 -8 20
-8 28 0 10 3 8 9 -5 5 -12 9 -14 9 -6z m51 1 c0 -5 -4 -10 -10 -10 -5 0 -10 5
-10 10 0 6 5 10 10 10 6 0 10 -4 10 -10z m-12 -52 c-2 -6 -10 -14 -16 -16 -7
-2 -10 2 -6 12 7 18 28 22 22 4z m-58 -17 c0 -5 -14 -14 -31 -20 -39 -13 -39
-13 -39 -1 0 6 9 10 19 10 11 0 23 5 26 10 8 12 25 13 25 1z m130 -1 c0 -5 -4
-10 -10 -10 -5 0 -10 5 -10 10 0 6 5 10 10 10 6 0 10 -4 10 -10z m-100 -49
c-5 -11 -7 -28 -4 -38 5 -15 4 -16 -5 -3 -9 12 -12 13 -20 1 -6 -9 -11 -10
-15 -2 -11 17 -29 13 -22 -5 3 -8 2 -12 -4 -9 -6 3 -10 2 -10 -3 0 -6 7 -12
15 -16 8 -3 15 -11 15 -17 0 -8 -4 -8 -15 1 -10 9 -15 9 -15 1 0 -14 -47 -15
-55 -1 -4 6 6 10 22 10 20 0 29 5 29 18 1 9 5 26 9 37 8 18 7 18 -8 6 -9 -7
-17 -11 -17 -8 0 3 -3 12 -6 20 -6 17 26 19 39 2 4 -6 11 -4 18 5 8 11 12 12
16 3 7 -18 26 -16 19 2 -3 9 0 15 10 15 11 0 12 -4 4 -19z m41 -94 c-13 -12
-20 -16 -16 -8 4 8 2 17 -6 23 -10 7 -7 7 9 3 14 -4 22 -2 22 6 0 7 3 9 7 5 4
-3 -4 -17 -16 -29z m-201 -17 c0 -20 5 -30 15 -30 8 0 15 -5 15 -11 0 -5 -4
-8 -9 -4 -5 3 -12 1 -16 -5 -8 -12 -55 -13 -55 -1 0 14 -37 20 -49 8 -17 -17
-13 -26 9 -20 11 3 20 0 20 -6 0 -20 -47 -12 -53 9 -3 11 -1 18 4 14 5 -3 9 0
9 5 0 6 -5 11 -11 11 -5 0 -7 5 -3 11 5 8 9 8 14 -1 6 -10 9 -10 15 0 4 7 10
8 14 3 13 -18 64 -34 74 -24 7 7 5 12 -6 17 -9 3 -15 10 -12 14 3 5 1 11 -5
15 -17 10 -11 25 10 25 16 0 20 -7 20 -30z m85 -10 c-3 -5 -12 -10 -18 -10 -7
0 -6 4 3 10 19 12 23 12 15 0z m189 -2 c-22 -37 -50 -68 -78 -89 l-31 -22 24
26 c12 14 20 30 17 36 -4 5 -1 13 5 17 7 4 9 3 5 -4 -3 -6 -3 -13 2 -16 4 -2
18 11 31 30 22 32 41 48 25 22z m-95 -29 c-15 -9 -32 -2 -24 11 3 5 13 6 21 3
12 -4 13 -8 3 -14z m-94 -79 c3 -6 -1 -7 -9 -4 -11 4 -16 0 -16 -12 0 -9 -3
-15 -6 -11 -9 8 3 37 15 37 5 0 13 -4 16 -10z m-4015 -114 l0 -113 -46 -7
c-26 -3 -327 -6 -670 -6 l-624 0 0 -90 0 -90 520 0 520 0 0 -89 c0 -49 3 -98
6 -108 4 -11 3 -14 -3 -6 -4 6 -8 -46 -8 -120 0 -122 -2 -134 -23 -165 -13
-18 -40 -41 -61 -51 -34 -18 -68 -20 -448 -23 -226 -2 -409 0 -407 4 3 4 -5
12 -16 18 -20 11 -21 10 -10 -12 10 -21 10 -22 -4 -5 -8 11 -12 25 -9 33 3 8
1 14 -5 14 -6 0 -15 14 -21 32 -6 17 -14 28 -17 25 -9 -9 16 -97 28 -97 5 0 6
-5 3 -10 -8 -13 14 -42 26 -34 5 3 6 -2 3 -10 -3 -8 8 -25 30 -43 34 -27 42
-28 163 -33 l128 -6 -171 -2 -172 -2 -48 33 c-54 35 -108 108 -124 165 -6 23
-10 208 -10 475 l0 437 735 0 735 0 0 -114z m3920 62 c0 -4 -46 -7 -102 -6
-99 1 -100 2 -33 7 103 9 135 8 135 -1z m43 -5 c-7 -2 -19 -2 -25 0 -7 3 -2 5
12 5 14 0 19 -2 13 -5z m-5613 -483 l0 -180 -51 0 c-71 0 -115 29 -145 94 -30
65 -30 100 1 162 36 70 84 100 168 103 l27 1 0 -180z m1513 23 c-3 -54 -7
-100 -9 -102 -2 -2 -4 41 -4 97 0 56 4 102 9 102 4 0 6 -44 4 -97z m107 93 c0
-11 -19 -15 -25 -6 -3 5 1 10 9 10 9 0 16 -2 16 -4z m17 -113 c-2 -16 -4 -5
-4 22 0 28 2 40 4 28 2 -13 2 -35 0 -50z m0 -55 c-3 -8 -6 -5 -6 6 -1 11 2 17
5 13 3 -3 4 -12 1 -19z m-82 -78 c0 -7 -7 -15 -15 -17 -13 -4 -13 -3 0 6 13
10 13 12 0 22 -13 9 -13 10 0 6 8 -2 15 -10 15 -17z m82 -27 c-3 -10 -5 -4 -5
12 0 17 2 24 5 18 2 -7 2 -21 0 -30z m-102 -10 c18 -10 17 -11 -6 -10 -17 2
-26 8 -27 22 0 11 2 15 6 9 4 -6 16 -16 27 -21z m102 -65 c-2 -13 -4 -5 -4 17
-1 22 1 32 4 23 2 -10 2 -28 0 -40z m0 -100 c-3 -8 -6 -5 -6 6 -1 11 2 17 5
13 3 -3 4 -12 1 -19z m-13 -52 c-3 -15 -8 -25 -11 -23 -2 3 -1 17 3 31 3 15 8
25 11 23 2 -3 1 -17 -3 -31z m-53 -3 c-12 -20 -14 -14 -5 12 4 9 9 14 11 11 3
-2 0 -13 -6 -23z m22 -64 c-10 -17 -31 -40 -48 -53 -36 -27 -68 -44 -41 -22
11 9 15 16 10 16 -6 0 -11 7 -11 15 0 11 4 12 11 5 13 -13 26 -13 26 1 0 5 -4
8 -9 5 -5 -3 -11 0 -14 7 -3 7 3 13 13 13 10 0 16 -4 14 -8 -3 -4 -1 -8 5 -8
6 0 20 14 33 30 28 39 34 38 11 -1z m-1129 -37 c2 -4 0 -14 -6 -22 -8 -12 -9
-12 -4 2 3 10 -1 18 -12 21 -16 4 -16 5 0 6 9 0 19 -3 22 -7z m-34 -17 c7 -9
10 -18 6 -22 -3 -3 -6 -1 -6 6 0 7 -5 9 -12 5 -6 -4 -8 -3 -4 4 3 5 0 13 -6
15 -8 4 -9 6 -2 6 6 1 17 -6 24 -14z m990 5 c0 -5 -7 -10 -16 -10 -8 0 -12 5
-9 10 3 6 10 10 16 10 5 0 9 -4 9 -10z m68 -11 c-2 -6 -7 -10 -11 -10 -4 1
-15 1 -24 2 -15 0 -15 2 2 9 28 12 37 12 33 -1z m-37 -27 c-7 -2 -18 1 -23 6
-8 8 -4 9 13 5 13 -4 18 -8 10 -11z m-974 2 c-3 -3 -12 -4 -19 -1 -8 3 -5 6 6
6 11 1 17 -2 13 -5z m838 -24 c4 -6 -6 -10 -22 -9 -25 0 -26 1 -8 9 11 5 21 9
22 9 1 1 5 -3 8 -9z m125 -6 c0 -2 -7 -4 -15 -4 -8 0 -15 4 -15 10 0 5 7 7 15
4 8 -4 15 -8 15 -10z m-687 -1 c-7 -2 -19 -2 -25 0 -7 3 -2 5 12 5 14 0 19 -2
13 -5z m85 0 c-10 -2 -28 -2 -40 0 -13 2 -5 4 17 4 22 1 32 -1 23 -4z m110 0
c-15 -2 -42 -2 -60 0 -18 2 -6 4 27 4 33 0 48 -2 33 -4z m75 0 c-7 -2 -19 -2
-25 0 -7 3 -2 5 12 5 14 0 19 -2 13 -5z m54 1 c-3 -3 -12 -4 -19 -1 -8 3 -5 6
6 6 11 1 17 -2 13 -5z m306 -1 c-7 -2 -21 -2 -30 0 -10 3 -4 5 12 5 17 0 24
-2 18 -5z"/>
<path d="M7390 3730 c0 -5 5 -10 10 -10 6 0 10 5 10 10 0 6 -4 10 -10 10 -5 0
-10 -4 -10 -10z"/>
<path d="M2023 3015 c0 -33 2 -45 4 -27 2 18 2 45 0 60 -2 15 -4 0 -4 -33z"/>
<path d="M3012 2900 c0 -14 2 -19 5 -12 2 6 2 18 0 25 -3 6 -5 1 -5 -13z"/>
<path d="M3031 2784 c0 -11 3 -14 6 -6 3 7 2 16 -1 19 -3 4 -6 -2 -5 -13z"/>
<path d="M2022 2740 c0 -14 2 -19 5 -12 2 6 2 18 0 25 -3 6 -5 1 -5 -13z"/>
<path d="M3031 2734 c0 -11 3 -14 6 -6 3 7 2 16 -1 19 -3 4 -6 -2 -5 -13z"/>
<path d="M2973 2707 c11 -9 15 -22 11 -33 -5 -16 -4 -16 5 -4 15 22 14 28 -11
40 -21 10 -21 10 -5 -3z"/>
<path d="M3013 2707 c11 -9 15 -22 11 -33 -5 -16 -4 -16 5 -4 15 22 14 28 -11
40 -21 10 -21 10 -5 -3z"/>
<path d="M2021 2694 c0 -11 3 -14 6 -6 3 7 2 16 -1 19 -3 4 -6 -2 -5 -13z"/>
<path d="M3000 2661 c0 -6 4 -13 10 -16 6 -3 7 1 4 9 -7 18 -14 21 -14 7z"/>
<path d="M2966 2645 c4 -8 11 -15 16 -15 6 0 5 6 -2 15 -7 8 -14 15 -16 15 -2
0 -1 -7 2 -15z"/>
<path d="M2977 2606 c-9 -7 -17 -18 -17 -25 0 -6 9 -2 21 10 24 24 22 33 -4
15z"/>
<path d="M2900 2590 c0 -5 7 -10 15 -10 8 0 15 -4 15 -10 0 -5 5 -10 10 -10 7
0 7 6 0 20 -11 21 -40 28 -40 10z"/>
<path d="M2877 2559 c7 -7 15 -10 18 -7 3 3 -2 9 -12 12 -14 6 -15 5 -6 -5z"/>
<path d="M2768 2553 c7 -3 16 -2 19 1 4 3 -2 6 -13 5 -11 0 -14 -3 -6 -6z"/>
<path d="M1887 5816 c-33 -31 -42 -66 -28 -109 17 -51 46 -72 96 -72 63 0 105
41 105 103 0 35 -6 49 -29 73 -39 39 -105 41 -144 5z"/>
<path d="M1727 4782 c-39 -40 -37 -93 3 -134 27 -27 36 -30 71 -25 93 12 125
101 59 167 -32 32 -99 28 -133 -8z"/>
<path d="M1899 4421 c-20 -20 -29 -40 -29 -61 0 -98 102 -146 169 -79 65 65
23 169 -69 169 -33 0 -48 -6 -71 -29z"/>
<path d="M7198 3938 c5 -5 16 -8 23 -6 8 3 3 7 -10 11 -17 4 -21 3 -13 -5z"/>
<path d="M3698 3933 c12 -2 30 -2 40 0 9 3 -1 5 -23 4 -22 0 -30 -2 -17 -4z"/>
<path d="M4188 3933 c6 -2 18 -2 25 0 6 3 1 5 -13 5 -14 0 -19 -2 -12 -5z"/>
<path d="M4248 3933 c6 -2 18 -2 25 0 6 3 1 5 -13 5 -14 0 -19 -2 -12 -5z"/>
<path d="M4358 3933 c6 -2 18 -2 25 0 6 3 1 5 -13 5 -14 0 -19 -2 -12 -5z"/>
<path d="M5238 3933 c23 -2 61 -2 85 0 23 2 4 4 -43 4 -47 0 -66 -2 -42 -4z"/>
<path d="M5778 3933 c12 -2 32 -2 45 0 12 2 2 4 -23 4 -25 0 -35 -2 -22 -4z"/>
<path d="M6028 3933 c6 -2 18 -2 25 0 6 3 1 5 -13 5 -14 0 -19 -2 -12 -5z"/>
<path d="M6368 3933 c12 -2 32 -2 45 0 12 2 2 4 -23 4 -25 0 -35 -2 -22 -4z"/>
<path d="M6513 3933 c9 -2 23 -2 30 0 6 3 -1 5 -18 5 -16 0 -22 -2 -12 -5z"/>
<path d="M6668 3933 c45 -2 119 -2 165 0 45 1 8 3 -83 3 -91 0 -128 -2 -82 -3z"/>
<path d="M6928 3933 c6 -2 18 -2 25 0 6 3 1 5 -13 5 -14 0 -19 -2 -12 -5z"/>
<path d="M7286 3908 c6 -30 5 -31 -8 -15 -14 18 -48 15 -48 -5 0 -6 7 -5 15 2
9 7 16 11 18 9 32 -56 32 -54 10 -57 -65 -7 -78 -6 -75 6 1 7 -4 20 -13 28
-13 14 -15 13 -13 -8 2 -13 8 -26 13 -30 6 -5 4 -18 -7 -37 -13 -24 -13 -29
-2 -24 8 3 14 9 14 15 0 5 5 6 12 2 8 -5 9 -2 5 10 -4 11 -2 16 6 14 6 -1 22
3 35 10 20 12 22 11 23 -10 1 -13 1 -29 0 -37 -2 -7 2 -10 9 -6 7 4 9 18 5 32
-4 19 -1 26 15 30 11 3 20 9 20 14 0 5 6 9 14 9 17 0 27 25 19 46 -4 12 -9 8
-21 -15 -14 -29 -40 -46 -29 -18 19 46 19 47 1 48 -11 1 -1 5 21 9 l40 7 -42
2 -42 1 5 -32z"/>
<path d="M6971 3904 c13 -16 29 -19 29 -5 0 5 -9 11 -21 14 -16 4 -18 3 -8 -9z"/>
<path d="M7150 3910 c-8 -5 -12 -11 -10 -14 3 -2 14 2 24 10 22 15 10 19 -14
4z"/>
<path d="M7195 3909 c-11 -16 -1 -19 13 -3 7 8 8 14 3 14 -5 0 -13 -5 -16 -11z"/>
<path d="M6888 3903 c7 -3 16 -2 19 1 4 3 -2 6 -13 5 -11 0 -14 -3 -6 -6z"/>
<path d="M4964 3862 c-108 -51 -133 -195 -51 -289 89 -102 232 -78 298 49 37
73 12 172 -58 225 -47 36 -130 42 -189 15z"/>
<path d="M7005 3849 c-16 -11 -23 -19 -15 -19 16 1 56 27 49 34 -2 2 -17 -5
-34 -15z"/>
<path d="M7136 3854 c-7 -17 17 -58 27 -47 12 11 7 23 -9 23 -11 0 -14 6 -9
20 7 24 0 27 -9 4z"/>
<path d="M7221 3861 c-7 -5 -9 -11 -5 -14 5 -3 15 1 22 9 14 16 5 18 -17 5z"/>
<path d="M6795 3839 c-4 -6 -5 -12 -2 -15 2 -3 7 2 10 11 7 17 1 20 -8 4z"/>
<path d="M7048 3825 c27 -20 29 -45 2 -52 -28 -7 -25 -18 5 -19 15 -1 25 4 25
11 0 7 2 19 5 27 7 18 -6 34 -35 43 l-25 7 23 -17z"/>
<path d="M6951 3806 c-9 -11 -8 -15 4 -20 10 -4 14 -2 9 5 -4 6 0 15 7 20 8 5
9 9 3 9 -6 0 -17 -6 -23 -14z"/>
<path d="M6995 3810 c-3 -6 1 -7 9 -4 18 7 21 14 7 14 -6 0 -13 -4 -16 -10z"/>
<path d="M7030 3800 c0 -5 5 -10 10 -10 6 0 10 5 10 10 0 6 -4 10 -10 10 -5 0
-10 -4 -10 -10z"/>
<path d="M7231 3755 c-14 -14 -22 -27 -18 -31 6 -7 46 34 47 49 0 10 -2 9 -29
-18z"/>
<path d="M6941 3753 c-7 -8 -11 -16 -8 -19 2 -2 10 2 17 11 17 20 9 27 -9 8z"/>
<path d="M7190 3760 c0 -5 5 -10 10 -10 6 0 10 5 10 10 0 6 -4 10 -10 10 -5 0
-10 -4 -10 -10z"/>
<path d="M7121 3744 c0 -11 3 -14 6 -6 3 7 2 16 -1 19 -3 4 -6 -2 -5 -13z"/>
<path d="M7150 3749 c0 -5 5 -7 10 -4 6 3 10 8 10 11 0 2 -4 4 -10 4 -5 0 -10
-5 -10 -11z"/>
<path d="M7262 3748 c-14 -14 -16 -28 -3 -28 9 0 24 30 18 36 -2 2 -9 -2 -15
-8z"/>
<path d="M6955 3730 c-3 -5 -1 -10 4 -10 6 0 11 5 11 10 0 6 -2 10 -4 10 -3 0
-8 -4 -11 -10z"/>
<path d="M7020 3729 c0 -5 5 -7 10 -4 6 3 10 8 10 11 0 2 -4 4 -10 4 -5 0 -10
-5 -10 -11z"/>
<path d="M7175 3730 c-3 -5 -2 -10 4 -10 5 0 13 5 16 10 3 6 2 10 -4 10 -5 0
-13 -4 -16 -10z"/>
<path d="M7276 3715 c-8 -22 -8 -22 9 -22 17 0 18 6 6 25 -7 11 -10 10 -15 -3z"/>
<path d="M6884 3700 c0 -10 6 -16 13 -13 7 3 13 9 13 13 0 4 -6 10 -13 13 -7
3 -13 -3 -13 -13z"/>
<path d="M6970 3703 c-13 -15 -12 -16 4 -10 10 4 20 7 22 7 2 0 4 5 4 10 0 15
-13 12 -30 -7z"/>
<path d="M7025 3700 c3 -5 8 -10 11 -10 2 0 4 5 4 10 0 6 -5 10 -11 10 -5 0
-7 -4 -4 -10z"/>
<path d="M7147 3687 c-10 -10 -16 -21 -13 -25 4 -3 14 5 23 18 15 21 17 21 28
6 12 -15 13 -15 17 2 7 24 -30 24 -55 -1z"/>
<path d="M7220 3693 c-13 -15 -12 -16 4 -10 10 4 20 7 22 7 2 0 4 5 4 10 0 15
-13 12 -30 -7z"/>
<path d="M6966 3644 c-3 -9 -4 -19 -1 -22 3 -3 5 1 5 9 0 11 2 11 10 -1 5 -8
10 -10 10 -5 0 6 -4 16 -9 23 -6 11 -10 10 -15 -4z"/>
<path d="M7013 3645 c-8 -9 -9 -16 -3 -20 6 -3 10 -1 10 5 0 6 4 9 9 5 5 -3
13 0 17 6 4 7 3 9 -4 5 -5 -3 -12 -2 -14 3 -1 5 -9 3 -15 -4z"/>
<path d="M7066 3631 c-3 -5 4 -11 16 -14 25 -7 33 -3 23 12 -8 13 -32 14 -39
2z"/>
<path d="M6976 3598 c3 -4 11 -5 19 -1 21 7 19 12 -4 10 -11 0 -18 -5 -15 -9z"/>
<path d="M7020 3600 c0 -6 4 -9 9 -6 5 4 12 1 14 -4 3 -6 4 -5 3 2 -3 15 -26
23 -26 8z"/>
<path d="M7121 3594 c0 -11 3 -14 6 -6 3 7 2 16 -1 19 -3 4 -6 -2 -5 -13z"/>
<path d="M6795 3569 c-11 -16 -1 -19 13 -3 7 8 8 14 3 14 -5 0 -13 -5 -16 -11z"/>
<path d="M6853 3564 c-3 -8 -12 -13 -19 -10 -18 7 -29 -13 -15 -27 9 -9 11 -8
6 3 -4 11 1 16 15 16 21 0 27 -11 10 -19 -6 -3 -5 -4 2 -3 7 2 13 15 13 29 1
31 -3 34 -12 11z"/>
<path d="M6531 3558 c-1 -10 6 -18 14 -18 8 0 15 5 15 11 0 5 -4 8 -9 5 -5 -4
-12 0 -14 6 -3 8 -6 6 -6 -4z"/>
<path d="M6895 3560 c-9 -14 -7 -16 28 -24 23 -5 27 -3 27 15 0 18 -2 20 -16
8 -13 -10 -17 -10 -24 0 -5 10 -9 10 -15 1z"/>
<path d="M6648 3543 c7 -3 16 -2 19 1 4 3 -2 6 -13 5 -11 0 -14 -3 -6 -6z"/>
<path d="M6887 3519 c7 -7 15 -10 18 -7 3 3 -2 9 -12 12 -14 6 -15 5 -6 -5z"/>
<path d="M6811 3493 c7 -12 15 -20 18 -17 3 2 -3 12 -13 22 -17 16 -18 16 -5
-5z"/>
<path d="M6866 3485 c-3 -9 0 -15 9 -15 16 0 20 16 6 24 -5 3 -11 -1 -15 -9z"/>
<path d="M6510 3480 c0 -5 9 -10 20 -10 11 0 20 5 20 10 0 6 -9 10 -20 10 -11
0 -20 -4 -20 -10z"/>
<path d="M6580 3480 c-12 -8 -10 -10 8 -10 13 0 20 4 17 10 -7 12 -6 12 -25 0z"/>
<path d="M6738 3483 c7 -3 16 -2 19 1 4 3 -2 6 -13 5 -11 0 -14 -3 -6 -6z"/>
<path d="M6910 3480 c0 -5 5 -10 10 -10 6 0 10 5 10 10 0 6 -4 10 -10 10 -5 0
-10 -4 -10 -10z"/>
<path d="M6168 3473 c6 -2 18 -2 25 0 6 3 1 5 -13 5 -14 0 -19 -2 -12 -5z"/>
<path d="M7392 2710 c-179 -48 -325 -174 -375 -324 -20 -58 -22 -137 -5 -154
9 -9 190 -12 754 -12 408 0 750 3 759 6 19 8 45 55 45 82 0 11 -9 31 -21 46
l-20 26 -159 0 -158 0 -32 56 c-66 117 -182 211 -321 260 -66 24 -92 27 -234
30 -136 3 -171 1 -233 -16z m345 -164 c97 -21 103 -24 103 -56 0 -40 -9 -60
-29 -61 -9 -1 -6 -4 9 -9 17 -6 -1 -9 -60 -10 -47 -1 -187 -4 -312 -6 -169 -4
-228 -2 -228 6 0 38 144 124 232 139 83 14 211 12 285 -3z m204 -93 c13 -16
12 -17 -3 -4 -10 7 -18 15 -18 17 0 8 8 3 21 -13z m27 -29 c-1 -5 -9 -9 -16
-10 -10 -2 -11 1 -1 12 12 14 24 13 17 -2z"/>
<path d="M7573 2513 c32 -2 81 -2 110 0 29 2 3 3 -58 3 -60 0 -84 -1 -52 -3z"/>
<path d="M7460 2499 c0 -5 5 -7 10 -4 6 3 10 8 10 11 0 2 -4 4 -10 4 -5 0 -10
-5 -10 -11z"/>
<path d="M7390 2489 c0 -5 5 -7 10 -4 6 3 10 8 10 11 0 2 -4 4 -10 4 -5 0 -10
-5 -10 -11z"/>
<path d="M7293 2444 c-48 -28 -52 -34 -23 -34 11 0 20 7 20 15 0 8 4 15 8 15
9 0 50 29 42 30 -3 0 -24 -12 -47 -26z"/>
<path d="M7335 2429 c-4 -6 -5 -12 -2 -15 2 -3 7 2 10 11 7 17 1 20 -8 4z"/>
<path d="M5480 2659 c0 -5 5 -7 10 -4 6 3 10 -4 11 -17 0 -13 3 -18 5 -11 3 7
13 9 21 6 11 -4 9 1 -5 15 -24 24 -42 29 -42 11z"/>
<path d="M5556 2655 c4 -8 8 -15 10 -15 2 0 4 7 4 15 0 8 -4 15 -10 15 -5 0
-7 -7 -4 -15z"/>
<path d="M5405 2649 c4 -6 13 -8 21 -5 7 3 16 1 19 -4 4 -6 11 -10 18 -10 6 0
2 7 -9 15 -22 17 -58 20 -49 4z"/>
<path d="M5425 2620 c3 -5 8 -10 11 -10 2 0 4 5 4 10 0 6 -5 10 -11 10 -5 0
-7 -4 -4 -10z"/>
<path d="M5410 2590 c0 -5 5 -10 10 -10 6 0 10 5 10 10 0 6 -4 10 -10 10 -5 0
-10 -4 -10 -10z"/>
<path d="M5443 2574 c-9 -19 -8 -24 2 -24 14 0 28 37 16 44 -3 2 -11 -7 -18
-20z"/>
<path d="M5596 2533 c-10 -24 -16 -47 -12 -50 3 -3 11 8 17 25 6 18 15 32 20
32 13 0 11 -14 -3 -28 -7 -7 -9 -12 -4 -12 9 0 36 26 36 34 0 3 -8 14 -18 24
-18 18 -19 17 -36 -25z"/>
<path d="M5231 2516 c-8 -10 -9 -16 -1 -21 5 -3 10 -3 10 1 0 3 8 0 18 -7 15
-12 16 -12 5 2 -7 9 -10 18 -7 21 3 3 1 9 -4 12 -5 3 -15 -1 -21 -8z"/>
<path d="M5516 2513 c-6 -14 -5 -15 5 -6 7 7 10 15 7 18 -3 3 -9 -2 -12 -12z"/>
<path d="M5438 2503 c7 -3 16 -2 19 1 4 3 -2 6 -13 5 -11 0 -14 -3 -6 -6z"/>
<path d="M5486 2482 c-2 -4 4 -8 14 -8 10 0 16 4 14 8 -3 4 -9 8 -14 8 -5 0
-11 -4 -14 -8z"/>
<path d="M3993 2375 c-31 -31 -35 -40 -30 -72 4 -20 16 -46 28 -59 l22 -24
1045 0 1044 0 29 29 c21 22 29 39 29 66 0 27 -8 44 -29 66 l-29 29 -1037 0
-1037 0 -35 -35z"/>
</g>
</svg>
