<?xml version="1.0" standalone="no"?>
<!DOCTYPE svg PUBLIC "-//W3C//DTD SVG 20010904//EN"
 "http://www.w3.org/TR/2001/REC-SVG-20010904/DTD/svg10.dtd">
<svg version="1.0" xmlns="http://www.w3.org/2000/svg"
 width="1024.000000pt" height="1024.000000pt" viewBox="0 0 1024.000000 1024.000000"
 preserveAspectRatio="xMidYMid meet">

<g transform="translate(0.000000,1024.000000) scale(0.100000,-0.100000)"
fill="#000000" stroke="none">
<path d="M0 5120 l0 -5120 5120 0 5120 0 0 5120 0 5120 -5120 0 -5120 0 0
-5120z m5510 3386 c386 -52 744 -179 1113 -395 145 -85 177 -116 177 -170 0
-56 -34 -91 -87 -91 -30 0 -59 14 -138 66 -229 151 -601 304 -871 359 -230 46
-347 58 -564 58 -329 -1 -576 -41 -885 -144 -737 -246 -1310 -742 -1660 -1439
-147 -292 -236 -586 -280 -921 -8 -63 -41 -94 -101 -94 -32 0 -49 6 -66 23
-33 32 -29 115 16 334 94 457 278 864 559 1236 505 666 1309 1113 2147 1192
127 12 509 3 640 -14z m-310 -675 c52 -28 91 -82 97 -135 7 -60 -1 -89 -39
-132 -57 -65 -143 -82 -218 -44 -91 47 -121 168 -63 257 43 65 153 92 223 54z
m-694 -88 c20 -22 24 -34 20 -58 -14 -68 -89 -92 -133 -41 -68 79 42 175 113
99z m1353 1 c25 -32 26 -55 6 -94 -26 -51 -93 -50 -129 2 -55 78 65 166 123
92z m1133 -682 c51 -17 132 -93 154 -144 18 -40 19 -84 22 -685 l3 -642 507
-3 507 -3 47 -27 c76 -46 106 -76 140 -145 28 -57 32 -77 32 -137 -2 -146 -89
-255 -236 -292 -145 -37 -298 30 -362 158 -44 87 -43 88 82 88 l108 0 23 -31
c45 -60 123 -60 175 2 47 56 28 155 -37 194 -30 19 -56 20 -509 23 l-477 3 -3
-778 c-3 -707 -5 -781 -20 -815 -29 -65 -68 -107 -126 -135 l-57 -28 -1840 0
c-1540 0 -1846 2 -1879 14 -55 19 -120 82 -147 144 l-24 52 -3 773 -3 772
-450 0 c-490 0 -523 -3 -564 -52 -46 -55 -45 -125 3 -180 24 -26 36 -31 76
-32 44 -1 51 2 81 37 l32 37 101 0 c55 0 103 -4 106 -8 12 -21 -19 -85 -65
-136 -179 -196 -479 -127 -546 126 -14 56 -15 73 -5 120 17 73 67 154 120 195
81 62 94 63 628 63 l483 0 3 638 c3 482 7 646 17 675 14 45 68 107 118 138 19
12 60 25 91 29 32 4 867 7 1857 6 1420 -1 1808 -4 1837 -14z m707 -19 c54 -50
188 -318 261 -523 76 -211 140 -468 140 -560 0 -109 -146 -139 -179 -37 -6 18
-19 78 -30 134 -44 230 -152 532 -272 760 -71 135 -78 161 -55 202 30 54 91
65 135 24z m-4998 -1012 c58 -59 26 -147 -58 -158 -37 -5 -45 -2 -73 25 -41
42 -42 92 -1 133 22 21 39 29 66 29 27 0 44 -8 66 -29z m4970 3 c27 -25 34
-75 14 -113 -28 -55 -95 -67 -144 -25 -26 21 -31 33 -31 67 1 44 12 66 45 85
26 16 91 8 116 -14z m397 -1226 c23 -23 10 -126 -45 -333 -31 -121 -119 -344
-199 -505 -340 -684 -891 -1203 -1595 -1503 -273 -117 -580 -189 -914 -216
-100 -8 -471 -6 -520 4 -11 2 -28 4 -37 4 -9 1 -29 13 -43 28 -33 36 -33 82
-1 120 l24 28 333 0 c273 0 353 3 439 18 466 79 901 266 1271 548 308 235 538
486 733 802 70 112 185 336 231 447 51 123 131 365 155 468 l24 102 66 0 c38
0 71 -5 78 -12z m-5281 -161 c47 -42 37 -124 -18 -152 -43 -23 -77 -18 -110
14 -55 56 -32 144 41 160 41 9 57 5 87 -22z m4785 12 c26 -14 48 -67 41 -102
-7 -36 -57 -77 -93 -77 -16 0 -42 11 -59 26 -26 22 -31 33 -31 70 0 34 6 51
25 69 26 27 80 34 117 14z m-5043 -486 c11 -10 54 -85 95 -168 79 -160 212
-369 317 -500 281 -352 700 -668 1139 -860 114 -50 145 -73 153 -113 7 -34
-15 -87 -41 -101 -43 -23 -84 -11 -275 84 -688 338 -1169 803 -1473 1423 -72
147 -77 180 -36 222 36 35 87 41 121 13z m2955 -664 c1 -2 10 -33 20 -68 23
-88 77 -181 149 -258 87 -93 88 -93 282 -93 162 0 166 -1 190 -24 32 -32 40
-69 25 -107 -27 -65 39 -61 -1037 -61 l-978 0 -27 31 c-37 41 -37 88 -2 130
l26 31 172 0 173 0 56 40 c93 67 180 206 207 331 l13 56 364 -2 c200 -1 365
-4 367 -6z"/>
<path d="M3300 5650 l0 -1200 1820 0 1820 0 0 1200 0 1200 -1820 0 -1820 0 0
-1200z m1760 852 c23 -18 31 -83 16 -129 -12 -37 -62 -43 -383 -43 l-303 0 0
-245 0 -245 208 0 c114 0 212 -4 218 -8 38 -25 46 -115 14 -150 -20 -21 -28
-22 -230 -22 l-210 0 0 -272 0 -273 312 2 c390 2 384 3 399 -47 9 -30 9 -47
-2 -81 l-14 -44 -420 -6 c-231 -3 -428 -1 -437 3 -9 5 -20 23 -23 41 -3 17 -5
366 -3 775 3 647 5 744 18 752 9 6 181 10 416 10 370 0 403 -1 424 -18z m1008
6 c7 -7 12 -19 12 -28 0 -9 -61 -126 -136 -261 -75 -134 -201 -365 -281 -514
-80 -148 -163 -300 -184 -337 l-40 -67 41 -81 c32 -64 44 -79 54 -71 7 6 45
73 84 149 69 134 217 407 265 488 23 38 29 42 77 46 124 12 144 -17 85 -123
-21 -35 -136 -251 -257 -479 -122 -228 -228 -423 -236 -432 -35 -41 -46 -28
-195 265 -481 939 -489 957 -474 980 20 31 135 37 159 10 9 -10 78 -138 154
-285 75 -148 140 -268 143 -268 9 0 49 71 170 295 59 110 129 238 155 285 27
47 65 117 85 155 96 180 114 211 142 247 30 37 32 38 98 38 39 0 72 -5 79 -12z"/>
<path d="M5045 4211 c-48 -22 -69 -44 -90 -94 -73 -176 138 -324 287 -199 39
33 58 78 58 139 -1 129 -134 210 -255 154z"/>
</g>
</svg>
